<?xml version="1.0" encoding="UTF-8" standalone="no"?>
<svg
   xmlns:dc="http://purl.org/dc/elements/1.1/"
   xmlns:cc="http://creativecommons.org/ns#"
   xmlns:rdf="http://www.w3.org/1999/02/22-rdf-syntax-ns#"
   xmlns:svg="http://www.w3.org/2000/svg"
   xmlns="http://www.w3.org/2000/svg"
   xmlns:sodipodi="http://sodipodi.sourceforge.net/DTD/sodipodi-0.dtd"
   xmlns:inkscape="http://www.inkscape.org/namespaces/inkscape"
   width="211.66661mm"
   height="63.5mm"
   viewBox="0 0 211.6666 63.5"
   version="1.1"
   id="svg8"
   inkscape:version="1.0.1 (3bc2e813f5, 2020-09-07, custom)"
   sodipodi:docname="logo.svg"
   inkscape:export-filename="/home/yantene/dev/github.com/yantene/rutty/artwork/logo.png"
   inkscape:export-xdpi="96"
   inkscape:export-ydpi="96">
  <defs
     id="defs2">
    <rect
       x="43.401814"
       y="111.83464"
       width="56.382771"
       height="34.502617"
       id="rect839" />
  </defs>
  <sodipodi:namedview
     id="base"
     pagecolor="#ffffff"
     bordercolor="#666666"
     borderopacity="1.0"
     inkscape:pageopacity="0.0"
     inkscape:pageshadow="2"
     inkscape:zoom="0.7"
     inkscape:cx="361.89907"
     inkscape:cy="105.18905"
     inkscape:document-units="mm"
     inkscape:current-layer="text991"
     inkscape:document-rotation="0"
     showgrid="false"
     showguides="false"
     fit-margin-top="0"
     fit-margin-left="0"
     fit-margin-right="0"
     fit-margin-bottom="0"
     inkscape:window-width="1920"
     inkscape:window-height="1052"
     inkscape:window-x="0"
     inkscape:window-y="28"
     inkscape:window-maximized="0" />
  <metadata
     id="metadata5">
    <rdf:RDF>
      <cc:Work
         rdf:about="">
        <dc:format>image/svg+xml</dc:format>
        <dc:type
           rdf:resource="http://purl.org/dc/dcmitype/StillImage" />
        <dc:title />
      </cc:Work>
    </rdf:RDF>
  </metadata>
  <g
     inkscape:label="icon"
     inkscape:groupmode="layer"
     id="layer1"
     transform="translate(21.110373,-99.977249)">
    <circle
       style="fill:#0082ac;fill-opacity:1;stroke-width:0.176437;stroke-linecap:square;stop-color:#000000"
       id="path863"
       cx="10.639627"
       cy="131.72725"
       r="31.75"
       inkscape:export-xdpi="204.8"
       inkscape:export-ydpi="204.8" />
    <rect
       style="fill:#fff8b8;fill-opacity:1;stroke-width:0.243355;stroke-linecap:square;stop-color:#000000"
       id="rect873"
       width="58.989559"
       height="53.983963"
       x="-18.855156"
       y="104.73524"
       ry="24.74498"
       inkscape:export-xdpi="204.8"
       inkscape:export-ydpi="204.8" />
    <rect
       style="fill:#b34e7e;fill-opacity:1;stroke-width:0.206476;stroke-linecap:square;stop-color:#000000"
       id="rect861"
       width="49.889652"
       height="41.118999"
       x="-14.305196"
       y="111.16774"
       ry="15.201334"
       inkscape:export-xdpi="204.8"
       inkscape:export-ydpi="204.8" />
    <text
       xml:space="preserve"
       id="text837"
       style="font-style:normal;font-weight:normal;font-size:10.5833px;line-height:1.25;font-family:sans-serif;white-space:pre;shape-inside:url(#rect839);fill:#f2f2f2;fill-opacity:1;stroke:none;"
       transform="matrix(3.1438302,0,0,3.1438302,-148.0924,-243.10384)"
       inkscape:export-xdpi="204.8"
       inkscape:export-ydpi="204.8"><tspan
         x="43.402344"
         y="122.4702"><tspan
           style="font-style:normal;font-variant:normal;font-weight:bold;font-stretch:normal;font-family:Hack;-inkscape-font-specification:'Hack Bold';fill:#f2f2f2;fill-opacity:1">$_</tspan></tspan></text>
  </g>
  <g
     inkscape:groupmode="layer"
     id="layer2"
     inkscape:label="logo">
    <g
       aria-label="Rutty"
       id="text991"
       style="font-style:normal;font-weight:normal;font-size:56.5166px;line-height:1.25;font-family:sans-serif;letter-spacing:-5.96837px;fill:#b34e7e;fill-opacity:1;stroke:none;stroke-width:1.41292">
      <path
         d="m 70.378054,9.9843421 h 11.755895 q 7.947647,0 11.424743,2.8147919 1.738547,1.407396 2.594023,3.725459 0.855476,2.290468 0.855476,5.298432 0,2.318063 -0.524324,3.973823 -0.496728,1.65576 -1.545376,2.925176 -0.993456,1.214224 -2.456043,1.986912 -1.434992,0.745092 -3.504692,1.021052 1.297012,0.303556 2.124892,1.131435 0.41394,0.41394 0.938264,1.269416 0.55192,0.855476 1.24182,2.235276 l 7.450918,14.81905 h -8.941102 l -4.96728,-10.40369 -0.579516,-1.214224 q -1.159032,-2.373256 -2.373255,-3.504692 -1.214224,-1.159032 -2.7596,-1.159032 H 78.518873 V 51.185165 H 70.378054 Z M 82.354717,28.05972 q 3.339115,0 4.801703,-1.324608 0.662304,-0.607112 1.048648,-1.628164 0.386344,-1.021052 0.386344,-2.676811 0,-3.03556 -1.434992,-4.304976 -1.462588,-1.297012 -4.801703,-1.297012 H 78.518873 V 28.05972 Z"
         style="font-style:normal;font-variant:normal;font-weight:bold;font-stretch:normal;font-family:Hack;-inkscape-font-specification:'Hack Bold';fill:#b34e7e;fill-opacity:1;stroke-width:1.41292"
         id="path842" />
      <path
         d="m 108.01136,51.985449 q -4.30498,0 -6.56785,-2.952771 -2.262871,-2.980368 -2.262871,-8.637547 V 20.277649 h 8.085631 v 18.875662 q 0,6.209099 3.80824,6.209099 2.31807,0 3.58748,-1.93172 1.29702,-1.931719 1.29702,-5.408815 V 20.277649 h 8.08562 v 30.907516 h -7.28534 l -0.80028,-4.580935 q -1.84894,5.381219 -7.94765,5.381219 z"
         style="font-style:normal;font-variant:normal;font-weight:bold;font-stretch:normal;font-family:Hack;-inkscape-font-specification:'Hack Bold';fill:#b34e7e;fill-opacity:1;stroke-width:1.41292"
         id="path844" />
      <path
         d="m 145.64466,51.295549 q -4.55334,0 -7.14736,-0.938264 -2.59402,-0.938263 -3.67027,-3.228731 -1.04865,-2.290468 -1.04865,-6.291887 V 26.486748 h -7.89245 v -6.209099 h 7.89245 v -8.444375 l 8.08563,-3.5874797 V 20.277649 h 10.56927 v 6.209099 h -10.56927 v 14.736263 q 0,2.042103 1.02105,2.952771 1.04865,0.910668 3.33912,0.910668 h 6.2091 v 6.209099 z"
         style="font-style:normal;font-variant:normal;font-weight:bold;font-stretch:normal;font-family:Hack;-inkscape-font-specification:'Hack Bold';fill:#b34e7e;fill-opacity:1;stroke-width:1.41292"
         id="path846" />
      <path
         d="m 173.70215,51.295549 q -4.55334,0 -7.14736,-0.938264 -2.59402,-0.938263 -3.67027,-3.228731 -1.04864,-2.290468 -1.04864,-6.291887 V 26.486748 h -7.89246 v -6.209099 h 7.89246 V 11.833274 L 169.9215,8.2457943 V 20.277649 h 10.56927 v 6.209099 H 169.9215 v 14.736263 q 0,2.042103 1.02105,2.952771 1.04865,0.910668 3.33912,0.910668 h 6.2091 v 6.209099 z"
         style="font-style:normal;font-variant:normal;font-weight:bold;font-stretch:normal;font-family:Hack;-inkscape-font-specification:'Hack Bold';fill:#b34e7e;fill-opacity:1;stroke-width:1.41292"
         id="path848" />
      <path
         d="m 182.71841,56.731961 h 0.88307 0.82788 q 2.01451,0 3.25633,-0.165576 1.24182,-0.13798 2.01451,-0.745092 0.80028,-0.579516 1.43499,-1.876528 0.63471,-1.297012 1.46259,-3.615075 l -11.7559,-30.052041 h 8.49957 l 7.06458,20.06229 6.76101,-20.06229 h 8.49957 l -12.83214,34.246632 q -0.82788,2.235276 -2.0421,4.1394 -1.18663,1.904123 -2.98037,3.063155 -1.79374,1.159032 -4.41536,1.159032 h -6.67823 z"
         style="font-style:normal;font-variant:normal;font-weight:bold;font-stretch:normal;font-family:Hack;-inkscape-font-specification:'Hack Bold';fill:#b34e7e;fill-opacity:1;stroke-width:1.41292"
         id="path850" />
    </g>
  </g>
</svg>
